<svg xmlns="http://www.w3.org/2000/svg" width="1800" height="600" viewBox="0 0 1800 600" role="img" aria-label="VisionGuard51 banner">
  <defs>
    <linearGradient id="bg" x1="0" y1="0" x2="1" y2="1">
      <stop offset="0" stop-color="#070A12"/>
      <stop offset="0.55" stop-color="#0B1024"/>
      <stop offset="1" stop-color="#08111B"/>
    </linearGradient>
    <radialGradient id="glowTeal" cx="65%" cy="45%" r="55%">
      <stop offset="0" stop-color="#27E0C6" stop-opacity="0.25"/>
      <stop offset="1" stop-color="#27E0C6" stop-opacity="0"/>
    </radialGradient>
    <radialGradient id="glowAmber" cx="35%" cy="55%" r="55%">
      <stop offset="0" stop-color="#FFB84D" stop-opacity="0.18"/>
      <stop offset="1" stop-color="#FFB84D" stop-opacity="0"/>
    </radialGradient>
    <pattern id="grid" width="48" height="48" patternUnits="userSpaceOnUse">
      <path d="M48 0H0V48" fill="none" stroke="#1A2A3A" stroke-width="1"/>
    </pattern>
    <filter id="soft" x="-20%" y="-20%" width="140%" height="140%">
      <feGaussianBlur stdDeviation="6"/>
    </filter>
    <filter id="textGlow" x="-30%" y="-30%" width="160%" height="160%">
      <feGaussianBlur stdDeviation="3" result="b"/>
      <feColorMatrix in="b" type="matrix"
        values="1 0 0 0 0
                0 1 0 0 0
                0 0 1 0 0
                0 0 0 0.65 0" result="g"/>
      <feMerge>
        <feMergeNode in="g"/>
        <feMergeNode in="SourceGraphic"/>
      </feMerge>
    </filter>
  </defs>

  <!-- Background -->
  <rect width="1800" height="600" fill="url(#bg)"/>
  <rect width="1800" height="600" fill="url(#grid)" opacity="0.35"/>
  <rect width="1800" height="600" fill="url(#glowTeal)"/>
  <rect width="1800" height="600" fill="url(#glowAmber)"/>

  <!-- Subtle scan lines -->
  <g opacity="0.12">
    <rect x="0" y="90" width="1800" height="2" fill="#D7F8FF"/>
    <rect x="0" y="210" width="1800" height="2" fill="#D7F8FF"/>
    <rect x="0" y="330" width="1800" height="2" fill="#D7F8FF"/>
    <rect x="0" y="450" width="1800" height="2" fill="#D7F8FF"/>
  </g>

  <!-- Turret silhouette (stylized, non-realistic) -->
  <g transform="translate(1130 110)">
    <!-- Base glow -->
    <ellipse cx="220" cy="380" rx="210" ry="70" fill="#27E0C6" opacity="0.12" filter="url(#soft)"/>
    <ellipse cx="220" cy="380" rx="160" ry="52" fill="#FFB84D" opacity="0.08" filter="url(#soft)"/>

    <!-- Stand -->
    <path d="M210 330 C210 290 230 260 270 250 L300 420 L140 420 L170 250 C195 255 210 280 210 330 Z"
          fill="#0F1A2A" stroke="#233349" stroke-width="3"/>
    <!-- Head housing -->
    <path d="M80 210 C80 160 120 120 170 120 H280 C330 120 370 160 370 210
             C370 250 350 280 320 295 H130 C100 280 80 250 80 210 Z"
          fill="#0E1624" stroke="#2A3E57" stroke-width="3"/>

    <!-- Lens -->
    <g transform="translate(260 208)">
      <circle cx="0" cy="0" r="56" fill="#0B1220" stroke="#2B425C" stroke-width="3"/>
      <circle cx="0" cy="0" r="40" fill="#08111B" stroke="#1D2C3F" stroke-width="2"/>
      <circle cx="0" cy="0" r="24" fill="#04101A"/>
      <circle cx="0" cy="0" r="18" fill="#27E0C6" opacity="0.22"/>
      <circle cx="0" cy="0" r="10" fill="#27E0C6" opacity="0.60"/>
      <circle cx="-14" cy="-16" r="10" fill="#D7F8FF" opacity="0.09"/>
    </g>

    <!-- Accent lines -->
    <path d="M105 235 H210" stroke="#27E0C6" stroke-width="4" opacity="0.55"/>
    <path d="M105 255 H185" stroke="#FFB84D" stroke-width="4" opacity="0.45"/>
    <path d="M300 255 H345" stroke="#27E0C6" stroke-width="4" opacity="0.35"/>
  </g>

  <!-- Title -->
  <g transform="translate(120 190)" filter="url(#textGlow)">
    <text x="0" y="0"
          font-family="ui-sans-serif, system-ui, -apple-system, Segoe UI, Roboto, Helvetica, Arial"
          font-size="68" font-weight="800" fill="#E9F6FF" letter-spacing="0.5">
      VisionGuard51
    </text>
    <text x="0" y="56"
          font-family="ui-sans-serif, system-ui, -apple-system, Segoe UI, Roboto, Helvetica, Arial"
          font-size="28" font-weight="600" fill="#A9C2D6" letter-spacing="0.3">
      AI-Powered Neural Sentinel Turret
    </text>
    <text x="0" y="110"
          font-family="ui-sans-serif, system-ui, -apple-system, Segoe UI, Roboto, Helvetica, Arial"
          font-size="18" font-weight="500" fill="#8AA6BE">
      Real-time detection " Face authorization " Remote dashboard " Telegram alerts " Arduino control
    </text>
  </g>

  <!-- Footer chip -->
  <g transform="translate(120 460)">
    <rect x="0" y="0" width="520" height="72" rx="18" fill="#0C1422" stroke="#22354B"/>
    <circle cx="34" cy="36" r="8" fill="#27E0C6" opacity="0.8"/>
    <circle cx="58" cy="36" r="8" fill="#FFB84D" opacity="0.7"/>
    <text x="86" y="43"
          font-family="ui-sans-serif, system-ui, -apple-system, Segoe UI, Roboto, Helvetica, Arial"
          font-size="18" font-weight="600" fill="#CFE6F7">
      Built with YOLOv8 + DeepFace + OpenCV + Flask + Arduino
    </text>
  </g>
</svg>
